<?xml version="1.0" standalone="no"?><!DOCTYPE svg PUBLIC "-//W3C//DTD SVG 1.1//EN" "http://www.w3.org/Graphics/SVG/1.1/DTD/svg11.dtd"><svg t="1713850165468" class="icon" viewBox="0 0 1024 1024" version="1.1" xmlns="http://www.w3.org/2000/svg" p-id="6560" xmlns:xlink="http://www.w3.org/1999/xlink" width="200" height="200"><path d="M21.333 512a490.667 490.667 0 1 0 981.334 0 490.667 490.667 0 1 0-981.334 0z" fill="#E1E0FC" p-id="6561" data-spm-anchor-id="a313x.search_index.0.i0.216a3a81XzpQWQ"></path><path d="M155.733 849.067c8.534-27.734 19.2-46.934 32-57.6C204.8 774.4 403.2 710.4 428.8 682.667c25.6-27.734 19.2-59.734 14.933-74.667-4.266-14.933-49.066-59.733-59.733-106.667-27.733-27.733-34.133-78.933-21.333-87.466-12.8-76.8-6.4-108.8 8.533-132.267s27.733-83.2 87.467-98.133 87.466 12.8 125.866 10.666C620.8 192 620.8 183.467 640 192c19.2 8.533 2.133 53.333 19.2 93.867 17.067 40.533 10.667 61.866 6.4 123.733 21.333 34.133-6.4 78.933-21.333 91.733C633.6 554.667 590.933 595.2 586.667 608c-2.134 12.8-10.667 72.533 57.6 104.533 68.266 32 170.666 61.867 198.4 78.934 17.066 12.8 27.733 32 27.733 57.6C772.267 953.6 652.8 1004.8 512 1002.667c-140.8-2.134-260.267-53.334-356.267-153.6z" fill="#F0EEFF" p-id="6562"></path></svg>