<svg width="120" height="120" viewBox="0 0 120 120" fill="none" xmlns="http://www.w3.org/2000/svg">
<path d="M52.287 18.4129C51.2328 18.9517 50.7175 19.9824 50.8111 21.4582C50.8111 21.716 52.0995 24.1054 53.6456 26.776L56.4568 31.6252L52.0995 39.1683C49.6867 43.3383 46.735 48.4686 45.4934 50.6003C44.2519 52.732 42.9166 55.0512 42.5183 55.754C42.12 56.4567 38.5827 62.5709 34.6705 69.3412C30.7585 76.1113 27.4085 81.8974 27.2446 82.2255C27.0571 82.5535 26.6588 83.2327 26.3543 83.7482C26.0498 84.2635 25.6046 85.06 25.3471 85.5052C24.9018 86.325 20.5915 93.798 19.0454 96.3983C17.5695 98.8814 17.8037 100.568 19.7482 101.599C20.4276 101.95 23.754 101.974 59.9707 101.974C103.426 101.974 100.24 102.091 101.411 100.591C102.278 99.4905 102.067 98.5534 100.24 95.3441C99.3264 93.7277 98.3661 92.041 98.1083 91.5958C97.4992 90.5417 92.5797 82.0146 87.2152 72.7379C84.896 68.7321 82.7408 65.0073 82.4129 64.4217C82.0849 63.836 80.6324 61.3059 79.1801 58.7995C76.9312 54.9342 74.2607 50.2958 72.6207 47.4378C72.3865 47.0395 70.4421 43.6661 68.287 39.9414C66.1318 36.1933 64.164 32.7965 63.9298 32.3749L63.4846 31.6252L66.0381 27.221C69.3177 21.552 69.1537 21.8565 69.1537 20.8257C69.1304 19.2093 67.7951 18.0381 65.9678 18.0381C64.609 18.0381 63.9062 18.7409 61.9384 22.1143C60.9312 23.8712 60.0176 25.3001 59.9473 25.3001C59.8536 25.3001 59.6428 25.019 59.4787 24.6443C58.4012 22.5359 56.0586 18.8815 55.59 18.5768C54.7701 18.0381 53.2006 17.9443 52.287 18.4129ZM61.3762 40.1055C62.079 41.3002 62.8756 42.7058 63.1567 43.2211C63.4378 43.7364 64.7496 46.0088 66.0615 48.2577C67.3734 50.5066 68.6851 52.7789 68.9898 53.2942C69.2709 53.8097 70.2782 55.5431 71.2152 57.1595C72.1523 58.7759 73.3471 60.814 73.8624 61.7276C74.3777 62.6179 76.8141 66.8345 79.2972 71.0981C81.7569 75.3382 84.0527 79.2972 84.3807 79.8829C84.7086 80.4685 86.1141 82.8813 87.4963 85.2708C88.9019 87.6603 90.2138 89.9092 90.4247 90.3075C91.877 92.8141 93.3061 95.2503 93.47 95.4611C93.6105 95.6252 90.1903 95.6955 83.3266 95.672L72.9957 95.6486L72.9721 88.2928C72.9488 81.8974 72.8785 80.773 72.5271 79.6485C71.4495 76.4157 70.2313 74.6121 67.7951 72.8082C66.3192 71.7071 64.5387 70.7701 63.7892 70.7232C63.7423 70.6998 63.2035 70.5827 62.5945 70.3954C60.369 69.8096 56.2459 70.3485 54.1142 71.4963C50.53 73.4173 47.9531 76.8374 47.18 80.6324C47.0864 81.0541 47.0161 84.6149 46.9927 88.5271V95.6653L72.9957 95.6486L36.6149 95.672C29.751 95.6955 26.331 95.6252 26.4715 95.4611C26.6354 95.2503 28.2752 92.4861 29.634 90.0733C29.9385 89.5578 32.6324 84.9194 35.6077 79.7657C38.6061 74.6121 41.2533 70.0204 41.511 69.5754C43.2445 66.5534 46.6881 60.6267 47.9297 58.4948C48.7497 57.1128 49.4289 55.9414 49.4289 55.8945C49.4289 55.8242 49.9444 54.9575 50.5769 53.9267C51.2094 52.8961 51.7481 51.9589 51.795 51.8419C52.0292 51.2328 59.8536 37.9502 59.9707 37.9502C60.0409 37.9502 60.6734 38.9341 61.3762 40.1055Z" fill="#CCCCCC"/>
<path d="M72.9721 88.2928L72.9957 95.6486L46.9927 95.6653V88.5271C47.0161 84.6149 47.0864 81.0541 47.18 80.6324C47.9531 76.8374 50.53 73.4173 54.1142 71.4963C56.2459 70.3484 60.369 69.8096 62.5945 70.3954C63.2035 70.5826 63.7423 70.6998 63.7892 70.7232C64.5387 70.7701 66.3192 71.7071 67.7951 72.8082C70.2313 74.612 71.4495 76.4157 72.5271 79.6485C72.8785 80.773 72.9488 81.8974 72.9721 88.2928Z" fill="#FB4D31"/>
</svg>
