<svg t="1709866807903" class="icon" viewBox="0 0 1024 1024" version="1.1" xmlns="http://www.w3.org/2000/svg" p-id="4913" width="32" height="32">
  <path d="M512 598.528a111.232 111.232 0 0 0-111.232 111.2064V870.4h222.464v-160.6656c0-61.44-49.792-111.232-111.232-111.232z m0 58.0608c-30.72 0-55.6032 24.9088-55.6032 55.6288v105.0368h111.2064v-105.0368c0-30.72-24.8832-55.6288-55.6032-55.6288z" fill="#FB4D31" p-id="4914"></path>
  <path d="M542.08 270.208l45.2608-78.5408a24.5248 24.5248 0 0 0 0-25.6A26.4448 26.4448 0 0 0 564.1472 153.6a26.3424 26.3424 0 0 0-22.5792 13.44L512 217.6256l-29.5424-50.5344c-4.5824-8.192-13.184-13.312-22.5536-13.4912a26.4448 26.4448 0 0 0-23.2448 12.4928 24.5248 24.5248 0 0 0 0 25.6l45.2352 78.5152L156.928 832.768a24.4736 24.4736 0 0 0 0.3328 25.088c4.8384 7.8336 13.3888 12.544 22.5792 12.5184h664.3456c9.3184 0 17.92-4.7616 22.6304-12.4672a24.4736 24.4736 0 0 0 0.3072-25.088l-325.0176-562.688v0.0512zM619.52 816.64h-33.3568c-12.3648 0-9.6768 0.1024-65.0496 0H512c-55.3728 0.1024-24.704 0-61.7984 0H225.28L512 322.1248 798.72 816.64h-179.2z" fill="#000000" p-id="4915"></path>
</svg>
