<svg width="32" height="32" viewBox="0 0 32 32" fill="none" xmlns="http://www.w3.org/2000/svg">
<rect width="32" height="32" fill="#0C0C18"/>
<path d="M16 18.704C15.0782 18.704 14.1942 19.0701 13.5424 19.7218C12.8905 20.3735 12.5242 21.2574 12.524 22.1792V27.2H19.476V22.1792C19.476 20.2592 17.92 18.7032 16 18.7032V18.704ZM16 20.5184C15.04 20.5184 14.2624 21.2968 14.2624 22.2568V25.5392H17.7376V22.2568C17.7376 21.2968 16.96 20.5184 16 20.5184Z" fill="#FB4D31"/>
<path d="M16.94 8.444L18.3544 5.9896C18.4281 5.86918 18.4671 5.73076 18.4671 5.5896C18.4671 5.44843 18.4281 5.31001 18.3544 5.1896C18.2782 5.067 18.1711 4.96653 18.0439 4.89817C17.9168 4.82981 17.7739 4.79597 17.6296 4.8C17.4855 4.80212 17.3445 4.84203 17.2207 4.91574C17.0969 4.98944 16.9946 5.09436 16.924 5.22L16 6.8008L15.0768 5.2216C14.9336 4.9656 14.6648 4.8056 14.372 4.8C14.2273 4.79577 14.0841 4.8296 13.9566 4.89811C13.8291 4.96663 13.7219 5.06742 13.6456 5.1904C13.5719 5.31081 13.5329 5.44923 13.5329 5.5904C13.5329 5.73156 13.5719 5.86998 13.6456 5.9904L15.0592 8.444L4.904 26.024C4.83482 26.1435 4.79926 26.2794 4.80109 26.4174C4.80292 26.5555 4.84208 26.6904 4.9144 26.808C5.0656 27.0528 5.3328 27.2 5.62 27.1992H26.3808C26.672 27.1992 26.9408 27.0504 27.088 26.8096C27.1602 26.6919 27.1992 26.557 27.2009 26.4189C27.2026 26.2809 27.1669 26.145 27.0976 26.0256L16.9408 8.4416V8.4432L16.94 8.444ZM19.36 25.52H18.3176C17.9312 25.52 18.0152 25.5232 16.2848 25.52H16C14.2696 25.5232 15.228 25.52 14.0688 25.52H7.04L16 10.0664L24.96 25.52H19.36Z" fill="white"/>
</svg>
