<?xml version="1.0" standalone="no"?>
<!DOCTYPE svg PUBLIC "-//W3C//DTD SVG 20010904//EN"
 "http://www.w3.org/TR/2001/REC-SVG-20010904/DTD/svg10.dtd">
<svg version="1.0" xmlns="http://www.w3.org/2000/svg"
 width="512.000000pt" height="512.000000pt" viewBox="0 0 512.000000 512.000000"
 preserveAspectRatio="xMidYMid meet">
<metadata>
Created by potrace 1.14, written by Peter Selinger 2001-2017
</metadata>
<g transform="translate(0.000000,512.000000) scale(0.100000,-0.100000)"
fill="#000000" stroke="none">
<path d="M2232 4334 c-45 -23 -67 -67 -63 -130 0 -11 55 -113 121 -227 l120
-207 -186 -322 c-103 -178 -229 -397 -282 -488 -53 -91 -110 -190 -127 -220
-17 -30 -168 -291 -335 -580 -167 -289 -310 -536 -317 -550 -8 -14 -25 -43
-38 -65 -13 -22 -32 -56 -43 -75 -19 -35 -203 -354 -269 -465 -63 -106 -53
-178 30 -222 29 -15 171 -16 1717 -16 1855 0 1719 -5 1769 59 37 47 28 87 -50
224 -39 69 -80 141 -91 160 -26 45 -236 409 -465 805 -99 171 -191 330 -205
355 -14 25 -76 133 -138 240 -96 165 -210 363 -280 485 -10 17 -93 161 -185
320 -92 160 -176 305 -186 323 l-19 32 109 188 c140 242 133 229 133 273 -1
69 -58 119 -136 119 -58 0 -88 -30 -172 -174 -43 -75 -82 -136 -85 -136 -4 0
-13 12 -20 28 -46 90 -146 246 -166 259 -35 23 -102 27 -141 7z m388 -926 c30
-51 64 -111 76 -133 12 -22 68 -119 124 -215 56 -96 112 -193 125 -215 12 -22
55 -96 95 -165 40 -69 91 -156 113 -195 22 -38 126 -218 232 -400 105 -181
203 -350 217 -375 14 -25 74 -128 133 -230 60 -102 116 -198 125 -215 62 -107
123 -211 130 -220 6 -7 -140 -10 -433 -9 l-441 1 -1 314 c-1 273 -4 321 -19
369 -46 138 -98 215 -202 292 -63 47 -139 87 -171 89 -2 1 -25 6 -51 14 -95
25 -271 2 -362 -47 -153 -82 -263 -228 -296 -390 -4 -18 -7 -170 -8 -337 l-1
-304 -442 -1 c-293 -1 -439 2 -433 9 7 9 77 127 135 230 13 22 128 220 255
440 128 220 241 416 252 435 74 129 221 382 274 473 35 59 64 109 64 111 0 3
22 40 49 84 27 44 50 84 52 89 10 26 344 593 349 593 3 0 30 -42 60 -92z"/>
</g>
</svg>
