<svg width="683" height="683" viewBox="0 0 683 683" fill="none" xmlns="http://www.w3.org/2000/svg">
<path d="M297.6 104.8C291.6 107.867 288.667 113.733 289.2 122.133C289.2 123.6 296.533 137.2 305.333 152.4L321.333 180L296.533 222.933C282.8 246.667 266 275.867 258.933 288C251.867 300.133 244.267 313.333 242 317.333C239.733 321.333 219.6 356.133 197.333 394.667C175.067 433.2 156 466.133 155.067 468C154 469.867 151.733 473.733 150 476.667C148.267 479.6 145.733 484.133 144.267 486.667C141.733 491.333 117.2 533.867 108.4 548.667C100 562.8 101.333 572.4 112.4 578.267C116.267 580.267 135.2 580.4 341.333 580.4C588.667 580.4 570.533 581.067 577.2 572.533C582.133 566.267 580.933 560.933 570.533 542.667C565.333 533.467 559.867 523.867 558.4 521.333C554.933 515.333 526.933 466.8 496.4 414C483.2 391.2 470.933 370 469.067 366.667C467.2 363.333 458.933 348.933 450.667 334.667C437.867 312.667 422.667 286.267 413.333 270C412 267.733 400.933 248.533 388.667 227.333C376.4 206 365.2 186.667 363.867 184.267L361.333 180L375.867 154.933C394.533 122.667 393.6 124.4 393.6 118.533C393.467 109.333 385.867 102.667 375.467 102.667C367.733 102.667 363.733 106.667 352.533 125.867C346.8 135.867 341.6 144 341.2 144C340.667 144 339.467 142.4 338.533 140.267C332.4 128.267 319.067 107.467 316.4 105.733C311.733 102.667 302.8 102.133 297.6 104.8ZM349.333 228.267C353.333 235.067 357.867 243.067 359.467 246C361.067 248.933 368.533 261.867 376 274.667C383.467 287.467 390.933 300.4 392.667 303.333C394.267 306.267 400 316.133 405.333 325.333C410.667 334.533 417.467 346.133 420.4 351.333C423.333 356.4 437.2 380.4 451.333 404.667C465.333 428.8 478.4 451.333 480.267 454.667C482.133 458 490.133 471.733 498 485.333C506 498.933 513.467 511.733 514.667 514C522.933 528.267 531.067 542.133 532 543.333C532.8 544.267 513.333 544.667 474.267 544.533L415.467 544.4L415.333 502.533C415.2 466.133 414.8 459.733 412.8 453.333C406.667 434.933 399.733 424.667 385.867 414.4C377.467 408.133 367.333 402.8 363.067 402.533C362.8 402.4 359.733 401.733 356.267 400.667C343.6 397.333 320.133 400.4 308 406.933C287.6 417.867 272.933 437.333 268.533 458.933C268 461.333 267.6 481.6 267.467 503.867V544.495L415.467 544.4L208.4 544.533C169.333 544.667 149.867 544.267 150.667 543.333C151.6 542.133 160.933 526.4 168.667 512.667C170.4 509.733 185.733 483.333 202.667 454C219.733 424.667 234.8 398.533 236.267 396C246.133 378.8 265.733 345.067 272.8 332.933C277.467 325.067 281.333 318.4 281.333 318.133C281.333 317.733 284.267 312.8 287.867 306.933C291.467 301.067 294.533 295.733 294.8 295.067C296.133 291.6 340.667 216 341.333 216C341.733 216 345.333 221.6 349.333 228.267Z" fill="black"/>
<path d="M415.333 502.533L415.467 544.4L267.467 544.495V503.867C267.6 481.6 268 461.333 268.533 458.933C272.933 437.333 287.6 417.867 308 406.933C320.133 400.4 343.6 397.333 356.267 400.667C359.733 401.733 362.8 402.4 363.067 402.533C367.333 402.8 377.467 408.133 385.867 414.4C399.733 424.667 406.667 434.933 412.8 453.333C414.8 459.733 415.2 466.133 415.333 502.533Z" fill="#FB4D31"/>
</svg>
